<svg width="16" height="16" viewBox="0 0 16 16" fill="none" xmlns="http://www.w3.org/2000/svg">
<path d="M8.00698 3.92369C7.86628 3.92369 7.72712 3.93087 7.59001 3.94491C7.45289 3.95896 7.31767 3.97977 7.18476 4.00708C7.05185 4.0344 6.92129 4.06823 6.79336 4.10817L6.41784 4.24604L6.06032 4.41868L5.72294 4.62397L5.40771 4.85976L5.11682 5.12399L4.85233 5.41462L4.61628 5.7295L4.41074 6.06657L4.23801 6.42368C4.18608 6.54582 4.13989 6.67106 4.09992 6.79889C4.05994 6.92672 4.02611 7.05722 3.99873 7.18999C3.97136 7.32274 3.95055 7.4578 3.93645 7.59482C3.92236 7.73183 3.91528 7.87084 3.91528 8.01139C3.91528 8.15193 3.92246 8.29094 3.93645 8.42796C3.95037 8.56389 3.97115 8.69902 3.99873 8.83284C4.02611 8.96611 4.05994 9.0961 4.09992 9.22394C4.13989 9.35178 4.18603 9.47696 4.23801 9.59914L4.41074 9.95627L4.61628 10.2933L4.85233 10.6082L5.11682 10.8988L5.40771 11.1631L5.72294 11.3989L6.06032 11.6041L6.41784 11.7768L6.79336 11.9147L7.18476 12.0158C7.31871 12.0433 7.45396 12.0641 7.59001 12.078C7.72855 12.0921 7.86773 12.0992 8.00698 12.0991C8.14768 12.0991 8.28685 12.092 8.42392 12.078C8.55996 12.0641 8.69522 12.0433 8.82916 12.0158L9.22062 11.9147L9.59613 11.7768L9.95361 11.6041L10.291 11.3989L10.6063 11.1631L10.8972 10.8988L11.1617 10.6082L11.3977 10.2933L11.6033 9.95627L11.7761 9.59914L11.9141 9.22394C11.9541 9.0961 11.988 8.9656 12.0153 8.83284L12.0775 8.42791C12.0916 8.2909 12.0987 8.15189 12.0987 8.01133C12.0987 7.87079 12.0916 7.73178 12.0775 7.59477C12.0636 7.45886 12.0428 7.32374 12.0153 7.18993C11.988 7.05667 11.9541 6.92672 11.9141 6.79883L11.7761 6.42363L11.6033 6.06651L11.3977 5.72944L11.1617 5.41457L10.8972 5.12393L10.6063 4.8597L10.291 4.62392L9.95361 4.41863L9.59613 4.246L9.22062 4.10811L8.82916 4.00703L8.42392 3.94486C8.28539 3.93071 8.14623 3.92368 8.00698 3.92369ZM8.00698 5.33461C8.10002 5.33461 8.19182 5.33922 8.28224 5.34834L8.54878 5.38869L8.80625 5.45429L9.05279 5.54384L9.28719 5.6561L9.50761 5.78962L9.71366 5.94324L9.90363 6.11557L10.0761 6.30532L10.2299 6.51118L10.3636 6.73189L10.4758 6.96614C10.5095 7.04631 10.5395 7.12848 10.5655 7.21249C10.5915 7.2965 10.6134 7.38236 10.6311 7.4698C10.6488 7.55725 10.6619 7.64623 10.6715 7.7366L10.6852 8.01164C10.6852 8.10458 10.6806 8.19632 10.6715 8.28675C10.6623 8.37717 10.6489 8.46615 10.6311 8.55354C10.6133 8.64093 10.5914 8.72679 10.5655 8.81086L10.4758 9.0572L10.3636 9.29144L10.2299 9.51211L10.0761 9.71801L9.90363 9.90777L9.71366 10.0801L9.50761 10.2337L9.28719 10.3672L9.05279 10.4795L8.80625 10.569L8.54878 10.6347L8.28224 10.6749C8.19076 10.6841 8.09887 10.6887 8.00694 10.6887C7.91497 10.6887 7.82307 10.6841 7.73158 10.6749L7.46504 10.6347C7.37754 10.6169 7.29163 10.595 7.20752 10.569L6.96097 10.4795L6.72657 10.3672L6.50616 10.2337L6.30011 10.0801L6.11014 9.90777L5.93766 9.71801L5.78388 9.51211L5.65021 9.29144L5.53795 9.0572L5.44825 8.81086L5.38264 8.55354L5.34231 8.28675C5.33313 8.19533 5.32854 8.10352 5.32856 8.01164C5.32854 7.91979 5.33313 7.82799 5.34231 7.7366C5.35137 7.64623 5.36485 7.55719 5.38264 7.4698C5.40025 7.38301 5.42216 7.29715 5.44831 7.21253L5.53801 6.96619L5.65026 6.73194L5.78394 6.51123L5.93771 6.30538L6.11019 6.11562L6.30015 5.94329L6.50621 5.78968L6.72662 5.65614L6.96102 5.54389C7.04169 5.51001 7.12401 5.48012 7.20762 5.45434L7.46514 5.38873C7.55264 5.371 7.64173 5.35747 7.73168 5.3484C7.82318 5.33923 7.91503 5.3346 8.00698 5.33461Z" fill="white"/>
<path d="M12.2646 2.76086C12.2322 2.76086 12.1997 2.7625 12.1674 2.76578C12.1351 2.76904 12.1029 2.77393 12.0711 2.78043C12.0393 2.78693 12.0077 2.79502 11.9767 2.80468C11.9456 2.81434 11.9152 2.82557 11.8852 2.8383C11.8553 2.85106 11.8261 2.86531 11.7975 2.881C11.769 2.89667 11.7413 2.91376 11.7145 2.93221C11.6876 2.95068 11.6617 2.97049 11.637 2.99157C11.6121 3.01262 11.5883 3.03491 11.5656 3.05836C11.5431 3.08181 11.5216 3.1064 11.5014 3.13201C11.4812 3.15763 11.4623 3.18424 11.4447 3.21177C11.4272 3.23927 11.4111 3.26763 11.3963 3.29676C11.3816 3.3259 11.3683 3.35577 11.3565 3.38626C11.3447 3.41672 11.3345 3.44778 11.3257 3.47928C11.3171 3.51079 11.3099 3.54271 11.3045 3.57493C11.2989 3.60714 11.2951 3.63961 11.2927 3.67222C11.2911 3.69531 11.2903 3.71847 11.2903 3.74162C11.2903 3.77433 11.2918 3.80702 11.2952 3.83958C11.2984 3.87211 11.3033 3.90446 11.3097 3.9365C11.3162 3.96854 11.3242 4.00024 11.3337 4.03148C11.3434 4.06272 11.3545 4.09347 11.3672 4.12359C11.3798 4.15372 11.3939 4.1832 11.4096 4.21191C11.4252 4.24061 11.4422 4.26851 11.4605 4.29551C11.4788 4.32249 11.4985 4.34852 11.5194 4.37352C11.5404 4.39854 11.5625 4.4225 11.5858 4.44529C11.6092 4.46807 11.6335 4.48966 11.6591 4.50998C11.6845 4.53031 11.7109 4.54934 11.7383 4.56702C11.7656 4.5847 11.7938 4.60099 11.8227 4.61582C11.8517 4.63067 11.8814 4.64404 11.9116 4.6559C11.942 4.66776 11.9727 4.67807 12.0041 4.68681C12.0354 4.69554 12.0671 4.7027 12.0991 4.70823C12.1311 4.7138 12.1634 4.71776 12.1957 4.72008C12.2187 4.72172 12.2417 4.72253 12.2647 4.72254C12.2972 4.72254 12.3297 4.72092 12.3621 4.71767C12.3943 4.7144 12.4265 4.70951 12.4583 4.70301C12.4902 4.69652 12.5216 4.68842 12.5527 4.67877C12.5837 4.6691 12.6143 4.65788 12.6442 4.64514C12.6741 4.6324 12.7034 4.61817 12.7318 4.60249C12.7604 4.58681 12.7881 4.5697 12.8149 4.55123C12.8417 4.53278 12.8676 4.51299 12.8925 4.49193C12.9173 4.47086 12.9411 4.44856 12.9637 4.42509C12.9864 4.40163 13.0078 4.37704 13.0279 4.35143C13.0482 4.32581 13.0671 4.2992 13.0846 4.27168C13.1022 4.24417 13.1184 4.21578 13.1331 4.18664C13.1478 4.15749 13.1612 4.12762 13.1729 4.09714C13.1847 4.06667 13.1949 4.03562 13.2036 4.00411C13.2123 3.97261 13.2194 3.94069 13.2249 3.90847C13.2305 3.87626 13.2344 3.84378 13.2366 3.81118C13.2383 3.78808 13.2392 3.76493 13.2392 3.74178C13.2392 3.70908 13.2375 3.6764 13.2343 3.64387C13.2311 3.61133 13.2262 3.57899 13.2197 3.54694C13.2133 3.5149 13.2052 3.4832 13.1956 3.45197C13.1859 3.42072 13.1748 3.38998 13.1622 3.35986C13.1495 3.32972 13.1354 3.30024 13.1198 3.27153C13.1043 3.24283 13.0873 3.21493 13.069 3.18793C13.0505 3.16093 13.0308 3.13489 13.0099 3.10987C12.9889 3.08486 12.9668 3.0609 12.9436 3.03811C12.9203 3.01533 12.8958 2.99374 12.8704 2.97342C12.8449 2.9531 12.8185 2.93408 12.7912 2.91642C12.7638 2.89874 12.7356 2.88246 12.7066 2.86762C12.6776 2.85278 12.6479 2.8394 12.6177 2.82754C12.5875 2.81569 12.5566 2.80538 12.5253 2.79663C12.4941 2.78788 12.4623 2.78071 12.4303 2.77516C12.3983 2.76961 12.3661 2.76567 12.3336 2.76337C12.3106 2.76172 12.2876 2.76086 12.2646 2.76086Z" fill="white"/>
<path d="M7.23123 0.0144652C6.78621 0.0137475 6.38906 0.0155926 6.03231 0.0206158L5.07584 0.0462447C4.79249 0.0585465 4.54214 0.0745891 4.31743 0.0953485C4.20507 0.105702 4.09907 0.117287 3.99861 0.13005C3.903 0.1421 3.80766 0.156131 3.71264 0.172133C3.62216 0.187511 3.53631 0.204118 3.45399 0.22216C3.37168 0.240203 3.29304 0.259681 3.21718 0.280594C3.14302 0.301044 3.06943 0.323539 2.99652 0.34805C2.92506 0.372141 2.85535 0.397668 2.78651 0.424937C2.64883 0.479475 2.51454 0.540675 2.37624 0.609259C2.26983 0.662054 2.17152 0.715515 2.07813 0.772104C1.98474 0.828693 1.89626 0.88846 1.80964 0.953558C1.72043 1.02092 1.63444 1.09246 1.55198 1.16792C1.46575 1.24644 1.3777 1.33281 1.2862 1.42933C1.17123 1.54994 1.07133 1.6624 0.98265 1.77276C0.938312 1.82791 0.896793 1.88246 0.857684 1.9373C0.819006 1.99134 0.782032 2.0466 0.746813 2.10296C0.711958 2.15883 0.678948 2.21573 0.647373 2.27427C0.615306 2.33381 0.585 2.39429 0.556493 2.45561C0.498162 2.58089 0.443726 2.7158 0.389393 2.8664C0.349085 2.97772 0.312991 3.09054 0.281187 3.20459C0.248742 3.32116 0.219884 3.4431 0.194152 3.57498C0.168421 3.70687 0.14597 3.8487 0.126235 4.00554C0.10497 4.17748 0.0879813 4.34991 0.0752854 4.52269C0.0609333 4.71264 0.0490415 4.92168 0.0393025 5.15433L0.0162366 5.92792L0.00383216 6.87091L0.000244141 8.01072L0.010752 9.66824L0.043557 10.9241L0.068827 11.4146L0.100402 11.8211C0.110523 11.9307 0.123187 12.0399 0.138384 12.1489C0.152223 12.2457 0.167088 12.3303 0.183081 12.4037C0.215531 12.5527 0.253902 12.7003 0.298103 12.8463C0.340425 12.9861 0.388824 13.1239 0.443162 13.2594C0.496573 13.3922 0.555006 13.5202 0.618566 13.6434C0.682126 13.7667 0.750811 13.8851 0.824623 13.9989C0.898434 14.1126 0.977371 14.2217 1.06164 14.3261C1.14581 14.4306 1.23534 14.5304 1.32988 14.6257C1.42454 14.721 1.5244 14.8117 1.62963 14.8979C1.7361 14.9851 1.84679 15.0671 1.96126 15.1434C2.06752 15.2144 2.17265 15.2796 2.27855 15.3392C2.38444 15.399 2.49126 15.4531 2.60106 15.5024C2.71085 15.5517 2.82342 15.596 2.94101 15.6359C3.05859 15.6758 3.1811 15.7112 3.31058 15.7427C3.44005 15.7742 3.57711 15.8018 3.72217 15.8259C3.86723 15.85 4.02229 15.8707 4.18795 15.8884C4.35362 15.9062 4.53035 15.9209 4.72026 15.9332C4.91017 15.9456 5.11315 15.9553 5.33125 15.9632C5.66817 15.9754 6.17819 15.9826 6.76632 15.9853L8.67029 15.9814L10.4732 15.9562L11.1588 15.9369L11.6053 15.914C11.7012 15.9061 11.795 15.8969 11.8856 15.8861C11.9761 15.8753 12.0653 15.863 12.1523 15.8489C12.2392 15.8349 12.3242 15.8192 12.4077 15.8018C12.4902 15.7846 12.5723 15.7653 12.6539 15.7442C12.7347 15.7237 12.8143 15.7003 12.8932 15.6756C12.972 15.6509 13.0501 15.6241 13.1277 15.5953C13.2057 15.5664 13.2829 15.5357 13.3594 15.5031C13.4364 15.4702 13.5133 15.4352 13.5906 15.398C13.7091 15.3409 13.8046 15.2932 13.8883 15.2468C13.9672 15.2036 14.0431 15.1552 14.1157 15.102C14.1872 15.0493 14.2583 14.9893 14.3403 14.9138C14.4223 14.8382 14.5153 14.7472 14.6303 14.6321C14.7316 14.531 14.8168 14.4431 14.8903 14.3632C14.9639 14.2833 15.0259 14.2114 15.0802 14.1421C15.132 14.0763 15.1802 14.0079 15.2248 13.937C15.2682 13.8678 15.3082 13.7959 15.3489 13.7162C15.4102 13.5963 15.4648 13.4852 15.5136 13.378C15.561 13.2748 15.6043 13.1696 15.6434 13.0629C15.682 12.957 15.7154 12.8493 15.7436 12.7402C15.7724 12.628 15.7973 12.5094 15.8189 12.3794C15.8403 12.2494 15.8586 12.108 15.8743 11.95C15.8901 11.7921 15.9036 11.6174 15.9153 11.4213L15.9467 10.7628L15.9734 9.94386L15.9927 9.03147L16 8.07747L15.9829 6.20373L15.96 5.36449L15.9288 4.64391L15.8898 4.08212C15.8757 3.92579 15.8603 3.80267 15.8442 3.71942C15.8262 3.62744 15.8062 3.5359 15.7841 3.44483C15.7626 3.35623 15.7389 3.26817 15.7131 3.18071C15.688 3.0955 15.6607 3.01094 15.6312 2.92713C15.6021 2.84436 15.5712 2.76331 15.5389 2.68402C15.5067 2.60472 15.4717 2.52728 15.4353 2.45147C15.3989 2.37566 15.3608 2.30169 15.3208 2.22941C15.2807 2.15714 15.239 2.08667 15.1953 2.01792C15.1518 1.94919 15.1063 1.88219 15.059 1.81699C15.012 1.752 14.9629 1.6885 14.9119 1.62657C14.8611 1.56499 14.8084 1.50502 14.7539 1.44676C14.6994 1.38858 14.6431 1.33213 14.5851 1.27751C14.527 1.22287 14.4672 1.16997 14.4056 1.11881C14.3436 1.06749 14.2801 1.0181 14.215 0.970729C14.1493 0.92287 14.0822 0.877025 14.0137 0.833257C13.9442 0.788864 13.8736 0.746541 13.8016 0.706341C13.7284 0.665469 13.654 0.626701 13.5787 0.590089C13.4534 0.529245 13.3377 0.475272 13.2241 0.427398C13.1123 0.379884 12.9984 0.337685 12.8828 0.300944C12.7664 0.264294 12.6453 0.232874 12.5121 0.205759C12.3788 0.178643 12.2334 0.156039 12.069 0.136817C11.9046 0.117595 11.7209 0.102065 11.5108 0.0891477C11.3008 0.0762307 11.0645 0.0660809 10.7947 0.0578797L9.87792 0.0373769L8.7176 0.0236912L7.23174 0.0145668L7.23123 0.0144652ZM8.00291 1.42416L10.1456 1.43636L10.954 1.45193C11.1766 1.45819 11.3464 1.46552 11.446 1.47398C11.5758 1.4849 11.6992 1.49858 11.8174 1.51499C11.9308 1.53064 12.0437 1.55011 12.1557 1.57337C12.2633 1.59592 12.366 1.62154 12.4643 1.65046C12.5626 1.67937 12.6564 1.71177 12.7464 1.74759C12.8366 1.78342 12.9227 1.82283 13.0056 1.866C13.0878 1.90883 13.1677 1.95597 13.2449 2.00721C13.3218 2.05821 13.3959 2.11317 13.4679 2.17237C13.5398 2.23157 13.6096 2.29502 13.6777 2.36289C13.7497 2.4345 13.816 2.50743 13.8771 2.58268C13.938 2.65747 13.9944 2.73584 14.0459 2.81739C14.098 2.9001 14.1449 2.98596 14.1864 3.07444C14.2289 3.16467 14.267 3.26 14.3012 3.36133C14.3356 3.46268 14.366 3.57037 14.393 3.68544C14.4213 3.80744 14.445 3.93047 14.4641 4.05424C14.4846 4.18547 14.5021 4.3254 14.517 4.47522C14.5318 4.62504 14.5441 4.78482 14.5542 4.95577C14.5623 5.09288 14.5694 5.27382 14.5754 5.48751L14.5904 6.21614L14.6019 8.00093L14.5889 9.78403L14.5732 10.5106L14.5516 11.039C14.5367 11.2864 14.5209 11.4944 14.502 11.6754C14.4926 11.766 14.4822 11.8498 14.4709 11.9283C14.4602 12.0026 14.4476 12.0764 14.433 12.15C14.4197 12.2171 14.4042 12.2838 14.3866 12.35C14.3698 12.413 14.3508 12.4756 14.3298 12.5374C14.3086 12.5996 14.2856 12.661 14.2607 12.7217C14.2343 12.7859 14.2066 12.8493 14.1773 12.9122C14.1513 12.9683 14.124 13.023 14.0951 13.0761C14.0666 13.1288 14.0361 13.1803 14.0041 13.2309C13.9723 13.281 13.939 13.3297 13.9041 13.3768C13.8694 13.4237 13.8331 13.4693 13.7951 13.5137C13.7573 13.5579 13.7179 13.6006 13.6769 13.6419C13.6359 13.6831 13.5933 13.7229 13.5492 13.7613C13.5052 13.7998 13.4594 13.8368 13.4121 13.8723C13.3649 13.9079 13.3159 13.942 13.2653 13.9747C13.2147 14.0074 13.1626 14.0388 13.1087 14.0688C13.0548 14.0987 12.9992 14.1272 12.9421 14.1544C12.8839 14.1821 12.825 14.208 12.7652 14.2321C12.7036 14.257 12.6412 14.2801 12.5782 14.3016C12.45 14.3452 12.3149 14.3836 12.1726 14.4166C12.0243 14.4509 11.8747 14.4789 11.724 14.5006C11.666 14.509 11.5329 14.517 11.3422 14.5243L10.6156 14.5446L8.55557 14.5713L6.39936 14.5747L5.55259 14.5657L5.00274 14.5486L4.5973 14.52C4.47141 14.5094 4.35433 14.4977 4.24464 14.4842C4.13495 14.4709 4.0328 14.456 3.93669 14.4391C3.84561 14.4234 3.75509 14.4046 3.66527 14.3828C3.58339 14.3629 3.50233 14.3397 3.42232 14.3132C3.34518 14.2876 3.27141 14.2593 3.19965 14.2283C3.12789 14.1973 3.05817 14.1633 2.98913 14.1262C2.92009 14.0891 2.85176 14.0489 2.78266 14.0049C2.73054 13.9718 2.68015 13.9382 2.63166 13.9028C2.58317 13.8672 2.53632 13.8318 2.49122 13.7947C2.44611 13.7576 2.4028 13.7193 2.36102 13.68C2.31952 13.6408 2.27945 13.6001 2.24088 13.5581C2.20243 13.5161 2.16568 13.473 2.13041 13.4283C2.09501 13.3834 2.06128 13.3372 2.02929 13.2899C1.99681 13.2418 1.96609 13.1926 1.93718 13.1423C1.90795 13.0916 1.88018 13.0391 1.85378 12.9849C1.82693 12.9298 1.80189 12.8738 1.77869 12.817C1.75511 12.7591 1.73275 12.6994 1.71174 12.6379C1.66971 12.5146 1.63281 12.3833 1.60072 12.2434C1.56863 12.1036 1.54125 11.9549 1.51809 11.7964C1.49492 11.6381 1.47626 11.4701 1.4614 11.2917C1.45043 11.1602 1.44172 10.9554 1.43505 10.6971L1.42111 9.7783L1.42623 7.43608L1.46658 5.19796L1.49733 4.40941L1.51475 4.14876C1.52081 4.07916 1.52706 4.02759 1.53346 3.99662C1.55459 3.89478 1.57585 3.8 1.59784 3.71128C1.61839 3.62757 1.64124 3.54446 1.66638 3.46201C1.69026 3.3842 1.71543 3.31131 1.74234 3.24227C1.76829 3.17538 1.79721 3.10969 1.82902 3.04539C1.86007 2.98286 1.89345 2.92298 1.92969 2.8647C1.96593 2.80642 2.00504 2.74989 2.04769 2.69366C2.09033 2.63742 2.13625 2.58191 2.18623 2.52563C2.23621 2.46936 2.29019 2.41251 2.34872 2.35392C2.41694 2.28531 2.48798 2.21956 2.56164 2.15683C2.63121 2.09766 2.70374 2.04207 2.77898 1.9903C2.85294 1.93903 2.92881 1.89342 3.0078 1.85149C3.08679 1.80957 3.1689 1.77168 3.25526 1.7376C3.34163 1.70351 3.43236 1.67301 3.52846 1.64533C3.62944 1.61701 3.73153 1.59284 3.83448 1.5729C3.94273 1.55169 4.05771 1.53318 4.18046 1.51703C4.30323 1.50089 4.43383 1.48694 4.57346 1.47484C4.67085 1.46644 4.83866 1.45896 5.05964 1.45266L5.86387 1.43677L8.00327 1.42369L8.00291 1.42416Z" fill="white"/>
</svg>
