<svg width="40" height="41" viewBox="0 0 40 41" fill="none" xmlns="http://www.w3.org/2000/svg">
<path d="M36.3268 34.1735L28.9065 26.75C31.1314 23.8508 32.1701 20.2138 31.812 16.5768C31.4539 12.9399 29.7257 9.57529 26.9782 7.16564C24.2306 4.75598 20.6693 3.48167 17.0167 3.60122C13.3641 3.72076 9.89374 5.22519 7.30959 7.80934C4.72544 10.3935 3.221 13.8639 3.10146 17.5164C2.98192 21.169 4.25623 24.7303 6.66588 27.4779C9.07554 30.2255 12.4401 31.9536 16.0771 32.3117C19.714 32.6699 23.351 31.6311 26.2503 29.4063L33.6768 36.8344C33.8512 37.0088 34.0583 37.1472 34.2862 37.2416C34.5141 37.3359 34.7583 37.3845 35.005 37.3845C35.2516 37.3845 35.4959 37.3359 35.7237 37.2416C35.9516 37.1472 36.1587 37.0088 36.3331 36.8344C36.5075 36.66 36.6459 36.4529 36.7402 36.2251C36.8346 35.9972 36.8832 35.7529 36.8832 35.5063C36.8832 35.2596 36.8346 35.0154 36.7402 34.7875C36.6459 34.5596 36.5075 34.3526 36.3331 34.1782L36.3268 34.1735ZM6.87527 18C6.87527 15.8986 7.49842 13.8444 8.66591 12.0971C9.8334 10.3498 11.4928 8.98799 13.4343 8.18381C15.3757 7.37963 17.5121 7.16922 19.5731 7.57919C21.6342 7.98915 23.5274 9.00109 25.0133 10.487C26.4992 11.973 27.5112 13.8661 27.9211 15.9272C28.3311 17.9882 28.1207 20.1246 27.3165 22.066C26.5123 24.0075 25.1505 25.6669 23.4032 26.8344C21.6559 28.0019 19.6017 28.625 17.5003 28.625C14.6832 28.6221 11.9824 27.5018 9.99046 25.5098C7.99852 23.5179 6.87817 20.8171 6.87527 18Z" fill="white"/>
</svg>
