<svg width="40" height="41" viewBox="0 0 40 41" fill="none" xmlns="http://www.w3.org/2000/svg">
<path d="M36.25 9.875V31.125C36.25 31.9538 35.9208 32.7487 35.3347 33.3347C34.7487 33.9208 33.9538 34.25 33.125 34.25H26.875C26.3777 34.25 25.9008 34.0525 25.5492 33.7008C25.1975 33.3492 25 32.8723 25 32.375C25 31.8777 25.1975 31.4008 25.5492 31.0492C25.9008 30.6975 26.3777 30.5 26.875 30.5H32.5V10.5H7.5V11.125C7.5 11.6223 7.30246 12.0992 6.95083 12.4508C6.59919 12.8025 6.12228 13 5.625 13C5.12772 13 4.65081 12.8025 4.29917 12.4508C3.94754 12.0992 3.75 11.6223 3.75 11.125V9.875C3.75 9.0462 4.07924 8.25134 4.66529 7.66529C5.25134 7.07924 6.0462 6.75 6.875 6.75H33.125C33.9538 6.75 34.7487 7.07924 35.3347 7.66529C35.9208 8.25134 36.25 9.0462 36.25 9.875ZM5.625 28C5.12772 28 4.65081 28.1975 4.29917 28.5492C3.94754 28.9008 3.75 29.3777 3.75 29.875C3.75 30.3723 3.94754 30.8492 4.29917 31.2008C4.65081 31.5525 5.12772 31.75 5.625 31.75C5.79076 31.75 5.94973 31.8158 6.06694 31.9331C6.18415 32.0503 6.25 32.2092 6.25 32.375C6.25 32.8723 6.44754 33.3492 6.79917 33.7008C7.15081 34.0525 7.62772 34.25 8.125 34.25C8.62228 34.25 9.09919 34.0525 9.45083 33.7008C9.80246 33.3492 10 32.8723 10 32.375C10 31.2147 9.53906 30.1019 8.71859 29.2814C7.89812 28.4609 6.78532 28 5.625 28ZM5.625 21.75C5.12772 21.75 4.65081 21.9475 4.29917 22.2992C3.94754 22.6508 3.75 23.1277 3.75 23.625C3.75 24.1223 3.94754 24.5992 4.29917 24.9508C4.65081 25.3025 5.12772 25.5 5.625 25.5C7.44773 25.5021 9.19521 26.2271 10.4841 27.5159C11.7729 28.8048 12.4979 30.5523 12.5 32.375C12.5 32.8723 12.6975 33.3492 13.0492 33.7008C13.4008 34.0525 13.8777 34.25 14.375 34.25C14.8723 34.25 15.3492 34.0525 15.7008 33.7008C16.0525 33.3492 16.25 32.8723 16.25 32.375C16.2471 29.558 15.1268 26.8571 13.1348 24.8652C11.1429 22.8732 8.44204 21.7529 5.625 21.75ZM5.625 15.5C5.12772 15.5 4.65081 15.6975 4.29917 16.0492C3.94754 16.4008 3.75 16.8777 3.75 17.375C3.75 17.8723 3.94754 18.3492 4.29917 18.7008C4.65081 19.0525 5.12772 19.25 5.625 19.25C9.10482 19.2537 12.4411 20.6377 14.9017 23.0983C17.3623 25.5589 18.7463 28.8952 18.75 32.375C18.75 32.8723 18.9475 33.3492 19.2992 33.7008C19.6508 34.0525 20.1277 34.25 20.625 34.25C21.1223 34.25 21.5992 34.0525 21.9508 33.7008C22.3025 33.3492 22.5 32.8723 22.5 32.375C22.495 27.901 20.7155 23.6117 17.5519 20.4481C14.3883 17.2845 10.099 15.505 5.625 15.5Z" fill="white"/>
</svg>
